<svg width="312" height="312" viewBox="0 0 312 312" fill="none" xmlns="http://www.w3.org/2000/svg">
<path d="M0 156C0 242.156 69.8436 312 156 312C260.5 257.5 146 214 93.5 184C38.7 146 70.6667 95.1667 93.5 74.5C72.3 50.5 79.3333 26.0344 85.5 16.8016C34.7667 42.5475 0 95.2137 0 156Z" fill="#A59884"/>
<path d="M312 156C312 69.8436 242.156 0 156 0C150.256 0 144.584 0.310493 139 0.915612C121.167 11.2771 95 42.5 139 70C188.5 96.5 299.5 140 222.5 228C232.333 238.104 246.1 266.082 222.5 297.157C275.397 272.193 312 218.371 312 156Z" fill="#A59884"/>
<path d="M205 214C252.5 141.5 144.5 119 112.5 89C104.522 96.0916 87.6319 122.993 107.5 150C121.252 168.693 158.165 180.664 205 214Z" fill="#A59884"/>
</svg>
